<svg xmlns="http://www.w3.org/2000/svg" width="1800" height="2940" viewBox="0 0 1800 2940"><defs>
        <linearGradient id="wall" x1="0" x2="1"><stop stop-color="#0A100D"/><stop offset=".7" stop-color="#16211B"/><stop offset="1" stop-color="#302B20"/></linearGradient>
        <linearGradient id="floor" x1="0" y1="0" x2="0" y2="1"><stop stop-color="#25302A"/><stop offset="1" stop-color="#090D0B"/></linearGradient>
        <linearGradient id="light" x1="0" x2="1"><stop stop-color="#D9C6A0" stop-opacity="0"/><stop offset=".5" stop-color="#D9C6A0" stop-opacity=".24"/><stop offset="1" stop-color="#D9C6A0" stop-opacity="0"/></linearGradient>
        <marker id="arrow-mint" markerWidth="9" markerHeight="9" refX="7" refY="4" orient="auto"><path d="M0 0 L8 4 L0 8" fill="none" stroke="#30E5AD" stroke-width="1.5"/></marker>
        <marker id="arrow-blue" markerWidth="9" markerHeight="9" refX="7" refY="4" orient="auto"><path d="M0 0 L8 4 L0 8" fill="none" stroke="#86ABFF" stroke-width="1.5"/></marker>
        <marker id="arrow-orange" markerWidth="9" markerHeight="9" refX="7" refY="4" orient="auto"><path d="M0 0 L8 4 L0 8" fill="none" stroke="#E55330" stroke-width="1.5"/></marker>
        <marker id="arrow-gray" markerWidth="9" markerHeight="9" refX="7" refY="4" orient="auto"><path d="M0 0 L8 4 L0 8" fill="none" stroke="#A8B8AE" stroke-width="1.5"/></marker>
        </defs><rect x="0" y="0" width="1800" height="2940" rx="0" fill="#070A09" opacity="1"/><text x="80" y="90" font-family="DejaVu Sans" font-size="27" fill="#30E5AD" font-weight="700" text-anchor="start" letter-spacing="2">ВНЕ / ГАЛЕРЕЯ СВЕТА</text><text x="80" y="156" font-family="DejaVu Sans" font-size="46" fill="#EDF2EE" font-weight="700" text-anchor="start">Мобильный: одна колонка, ясный путь</text><text x="80" y="202" font-family="DejaVu Sans" font-size="26" fill="#A8B8AE" font-weight="400" text-anchor="start">Та же история и маршруты — отдельная композиция для телефона.</text><path d="M80 246 L152 246" fill="none" stroke="#30E5AD" stroke-width="2.5" marker-end="url(#arrow-mint)"/><text x="174" y="255" font-family="DejaVu Sans" font-size="24" fill="#30E5AD" font-weight="400" text-anchor="start">Главы по порядку</text><path d="M900 246 L972 246" fill="none" stroke="#86ABFF" stroke-width="2.5" marker-end="url(#arrow-blue)"/><text x="994" y="255" font-family="DejaVu Sans" font-size="24" fill="#86ABFF" font-weight="400" text-anchor="start">Переходы на страницы</text><path d="M80 293 L152 293" fill="none" stroke="#E55330" stroke-width="2.5" marker-end="url(#arrow-orange)"/><text x="174" y="302" font-family="DejaVu Sans" font-size="24" fill="#E55330" font-weight="400" text-anchor="start">Приглашение / CTA</text><path d="M900 293 L972 293" fill="none" stroke="#A8B8AE" stroke-width="2.5" stroke-dasharray="8 8" marker-end="url(#arrow-gray)"/><text x="994" y="302" font-family="DejaVu Sans" font-size="24" fill="#A8B8AE" font-weight="400" text-anchor="start">Позднее: этапы 05–08</text><text x="80" y="375" font-family="DejaVu Sans" font-size="25" fill="#30E5AD" font-weight="400" text-anchor="start">01</text><text x="145" y="375" font-family="DejaVu Sans" font-size="30" fill="#EDF2EE" font-weight="700" text-anchor="start">Композиция и управление пальцем</text><rect x="80" y="414" width="560" height="960" rx="30" fill="#050806" opacity="1" stroke="#304039"/><rect x="104" y="438" width="512" height="914" rx="18" fill="#101710" opacity="1" stroke="#304039"/><text x="136" y="486" font-family="DejaVu Sans" font-size="30" fill="#EDF2EE" font-weight="700" text-anchor="start">ВНЕ</text><text x="582" y="484" font-family="DejaVu Sans" font-size="25" fill="#EDF2EE" font-weight="400" text-anchor="end">Меню  ≡</text><path d="M126 509 L594 509" fill="none" stroke="#304039" stroke-width="1"/><text x="137" y="557" font-family="DejaVu Sans" font-size="22" fill="#30E5AD" font-weight="400" text-anchor="start">01 / ПОРОГ</text><text x="137" y="622" font-family="DejaVu Sans" font-size="68" fill="#EDF2EE" font-weight="700" text-anchor="start">ВНЕ</text><text x="137" y="670" font-family="DejaVu Sans" font-size="31" fill="#EDF2EE" font-weight="700" text-anchor="start">За пределами</text><text x="137" y="710" font-family="DejaVu Sans" font-size="31" fill="#EDF2EE" font-weight="700" text-anchor="start">привычного</text><text x="137" y="752" font-family="DejaVu Sans" font-size="21" fill="#A8B8AE" font-weight="400" text-anchor="start">Музыка. Пространство. Люди.</text><rect x="137" y="780" width="444" height="64" rx="3" fill="#E55330" opacity="1"/><text x="359" y="821" font-family="DejaVu Sans" font-size="24" fill="#070A09" font-weight="400" text-anchor="middle">Получить приглашение</text><text x="359" y="886" font-family="DejaVu Sans" font-size="24" fill="#EDF2EE" font-weight="400" text-anchor="middle">Смотреть события →</text><rect x="126" y="919" width="468" height="330" rx="0" fill="url(#wall)" opacity="1"/><path d="M172.8 919 L252.36 978.4 L252.36 1179.7 L172.8 1249" fill="#0B110E" stroke="#304039" stroke-width="2"/><path d="M462.96 919 L556.56 952.0 L556.56 1196.2 L462.96 1173.1 Z" fill="#151C17" stroke="#304039" stroke-width="2"/><rect x="126" y="1183.0" width="468" height="66.0" rx="0" fill="url(#floor)" opacity="1"/><rect x="453.59999999999997" y="919" width="8" height="257.40000000000003" rx="0" fill="#D9C6A0" opacity="0.7"/><rect x="420.84" y="919" width="70.2" height="267.3" rx="0" fill="url(#light)" opacity="1"/><path d="M200.88 1189.6 L570.5999999999999 1196.2" fill="none" stroke="#D9C6A0" stroke-width="2"/><path d="M271.08000000000004 1189.6 L271.08000000000004 971.8 L434.88 984.904 L434.88 1189.6 L421.776 1189.6 L421.776 998.008 L284.184 984.904 L284.184 1189.6 Z" fill="#86ABFF" stroke="#86ABFF" stroke-width="1"/><path d="M271.08000000000004 971.8 L283.08000000000004 962.8 L446.88 975.904 L434.88 984.904" fill="none" stroke="#EDF2EE" stroke-width="0.8"/><path d="M298.15614000000005 1189.6 L298.15614000000005 1034.962 L414.45414000000005 1044.26584 L414.45414000000005 1189.6 L405.1503000000001 1189.6 L405.1503000000001 1053.56968 L307.45998000000003 1044.26584 L307.45998000000003 1189.6 Z" fill="#30E5AD" stroke="#30E5AD" stroke-width="1"/><path d="M298.15614000000005 1034.962 L310.15614000000005 1025.962 L426.45414000000005 1035.26584 L414.45414000000005 1044.26584" fill="none" stroke="#EDF2EE" stroke-width="0.8"/><path d="M324.29862 1189.6 L324.29862 1095.946 L394.73262 1101.58072 L394.73262 1189.6 L389.0979 1189.6 L389.0979 1107.21544 L329.93334000000004 1101.58072 L329.93334000000004 1189.6 Z" fill="#E55330" stroke="#E55330" stroke-width="1"/><path d="M324.29862 1095.946 L336.29862 1086.946 L406.73262 1092.58072 L394.73262 1101.58072" fill="none" stroke="#EDF2EE" stroke-width="0.8"/><text x="137" y="1297" font-family="DejaVu Sans" font-size="25" fill="#30E5AD" font-weight="400" text-anchor="start">↓  Манифест</text><path d="M292 1330 L428 1330" fill="none" stroke="#A8B8AE" stroke-width="4"/><rect x="690" y="414" width="1030" height="190" rx="12" fill="#0E1512" opacity="1" stroke="#304039"/><text x="721" y="460" font-family="DejaVu Sans" font-size="29" fill="#30E5AD" font-weight="700" text-anchor="start">01</text><text x="788" y="460" font-family="DejaVu Sans" font-size="30" fill="#EDF2EE" font-weight="700" text-anchor="start">Читаемый первый экран</text><text x="721" y="506" font-family="DejaVu Sans" font-size="26" fill="#A8B8AE" font-weight="400" text-anchor="start">Текст и CTA находятся над порталом.</text><text x="721" y="545" font-family="DejaVu Sans" font-size="26" fill="#A8B8AE" font-weight="400" text-anchor="start">Графика не перекрывает кнопку и заголовок.</text><rect x="690" y="634" width="1030" height="190" rx="12" fill="#0E1512" opacity="1" stroke="#304039"/><text x="721" y="680" font-family="DejaVu Sans" font-size="29" fill="#86ABFF" font-weight="700" text-anchor="start">02</text><text x="788" y="680" font-family="DejaVu Sans" font-size="30" fill="#EDF2EE" font-weight="700" text-anchor="start">Одна навигация в меню</text><text x="721" y="726" font-family="DejaVu Sans" font-size="26" fill="#A8B8AE" font-weight="400" text-anchor="start">Главы 01–06 + События + О проекте + Кабинет.</text><text x="721" y="765" font-family="DejaVu Sans" font-size="26" fill="#A8B8AE" font-weight="400" text-anchor="start">Левого rail и горизонтальной прокрутки нет.</text><rect x="690" y="854" width="1030" height="220" rx="12" fill="#0E1512" opacity="1" stroke="#304039"/><text x="721" y="900" font-family="DejaVu Sans" font-size="29" fill="#E55330" font-weight="700" text-anchor="start">03</text><text x="788" y="900" font-family="DejaVu Sans" font-size="30" fill="#EDF2EE" font-weight="700" text-anchor="start">Приглашение под рукой</text><text x="721" y="946" font-family="DejaVu Sans" font-size="26" fill="#A8B8AE" font-weight="400" text-anchor="start">Нижний CTA появляется после hero. Скрывается,</text><text x="721" y="985" font-family="DejaVu Sans" font-size="26" fill="#A8B8AE" font-weight="400" text-anchor="start">когда виден другой CTA, открыто меню / клавиатура</text><text x="721" y="1024" font-family="DejaVu Sans" font-size="26" fill="#A8B8AE" font-weight="400" text-anchor="start">или пользователь уже находится на /apply.</text><rect x="690" y="1104" width="1030" height="190" rx="12" fill="#0E1512" opacity="1" stroke="#304039"/><text x="721" y="1150" font-family="DejaVu Sans" font-size="29" fill="#D9C6A0" font-weight="700" text-anchor="start">04</text><text x="788" y="1150" font-family="DejaVu Sans" font-size="30" fill="#EDF2EE" font-weight="700" text-anchor="start">Спокойная анимация</text><text x="721" y="1196" font-family="DejaVu Sans" font-size="26" fill="#A8B8AE" font-weight="400" text-anchor="start">Один портал; движение связано со скроллом.</text><text x="721" y="1235" font-family="DejaVu Sans" font-size="26" fill="#A8B8AE" font-weight="400" text-anchor="start">Слабое устройство / меньше движения → SVG.</text><text x="721" y="1274" font-family="DejaVu Sans" font-size="26" fill="#A8B8AE" font-weight="400" text-anchor="start">Отступы учитывают safe area телефона.</text><text x="80" y="1428" font-family="DejaVu Sans" font-size="26" fill="#A8B8AE" font-weight="400" text-anchor="start">Порядок слоёв: фон → портал → HTML / UI → шапка → меню с управлением фокусом.</text><text x="80" y="1500" font-family="DejaVu Sans" font-size="25" fill="#30E5AD" font-weight="400" text-anchor="start">02</text><text x="145" y="1500" font-family="DejaVu Sans" font-size="30" fill="#EDF2EE" font-weight="700" text-anchor="start">История вниз; переходы — по выбранному действию</text><rect x="80" y="1536" width="780" height="122" rx="10" fill="#0E1512" opacity="1" stroke="#304039"/><rect x="80" y="1536" width="5" height="122" rx="2" fill="#30E5AD" opacity="1"/><text x="109" y="1580" font-family="DejaVu Sans" font-size="29" fill="#30E5AD" font-weight="700" text-anchor="start">01</text><text x="170" y="1580" font-family="DejaVu Sans" font-size="30" fill="#EDF2EE" font-weight="700" text-anchor="start">Порог</text><text x="170" y="1612" font-family="DejaVu Sans" font-size="21" fill="#30E5AD" font-weight="400" text-anchor="start">#threshold</text><text x="109" y="1641" font-family="DejaVu Sans" font-size="22" fill="#A8B8AE" font-weight="400" text-anchor="start">Понять настроение и выбрать действие.</text><path d="M865 1597 L925 1597" fill="none" stroke="#E55330" stroke-width="2.2" marker-end="url(#arrow-orange)"/><rect x="952" y="1536" width="768" height="122" rx="10" fill="#0B120F" opacity="1" stroke="#304039"/><text x="982" y="1584" font-family="DejaVu Sans" font-size="20" fill="#A8B8AE" font-weight="400" text-anchor="start">ПЕРЕХОД НА СТРАНИЦУ</text><text x="982" y="1624" font-family="DejaVu Sans" font-size="24" fill="#E55330" font-weight="700" text-anchor="start">/apply  или  /events</text><path d="M102 1659 L102 1679" fill="none" stroke="#30E5AD" stroke-width="2" marker-end="url(#arrow-mint)"/><rect x="80" y="1683" width="780" height="122" rx="10" fill="#0E1512" opacity="1" stroke="#304039"/><rect x="80" y="1683" width="5" height="122" rx="2" fill="#30E5AD" opacity="1"/><text x="109" y="1727" font-family="DejaVu Sans" font-size="29" fill="#30E5AD" font-weight="700" text-anchor="start">02</text><text x="170" y="1727" font-family="DejaVu Sans" font-size="30" fill="#EDF2EE" font-weight="700" text-anchor="start">Манифест</text><text x="170" y="1759" font-family="DejaVu Sans" font-size="21" fill="#30E5AD" font-weight="400" text-anchor="start">#manifesto</text><text x="109" y="1788" font-family="DejaVu Sans" font-size="22" fill="#A8B8AE" font-weight="400" text-anchor="start">Коротко объяснить идею ВНЕ.</text><path d="M865 1744 L925 1744" fill="none" stroke="#86ABFF" stroke-width="2.2" marker-end="url(#arrow-blue)"/><rect x="952" y="1683" width="768" height="122" rx="10" fill="#0B120F" opacity="1" stroke="#304039"/><text x="982" y="1731" font-family="DejaVu Sans" font-size="20" fill="#A8B8AE" font-weight="400" text-anchor="start">ПЕРЕХОД НА СТРАНИЦУ</text><text x="982" y="1771" font-family="DejaVu Sans" font-size="24" fill="#86ABFF" font-weight="700" text-anchor="start">/about</text><path d="M102 1806 L102 1826" fill="none" stroke="#30E5AD" stroke-width="2" marker-end="url(#arrow-mint)"/><rect x="80" y="1830" width="780" height="122" rx="10" fill="#0E1512" opacity="1" stroke="#304039"/><rect x="80" y="1830" width="5" height="122" rx="2" fill="#30E5AD" opacity="1"/><text x="109" y="1874" font-family="DejaVu Sans" font-size="29" fill="#30E5AD" font-weight="700" text-anchor="start">03</text><text x="170" y="1874" font-family="DejaVu Sans" font-size="30" fill="#EDF2EE" font-weight="700" text-anchor="start">Пространство</text><text x="170" y="1906" font-family="DejaVu Sans" font-size="21" fill="#30E5AD" font-weight="400" text-anchor="start">#space</text><text x="109" y="1935" font-family="DejaVu Sans" font-size="22" fill="#A8B8AE" font-weight="400" text-anchor="start">Погрузиться в архитектуру, свет и лес.</text><path d="M865 1891 L925 1891" fill="none" stroke="#86ABFF" stroke-width="2.2" marker-end="url(#arrow-blue)"/><rect x="952" y="1830" width="768" height="122" rx="10" fill="#0B120F" opacity="1" stroke="#304039"/><text x="982" y="1878" font-family="DejaVu Sans" font-size="20" fill="#A8B8AE" font-weight="400" text-anchor="start">ПЕРЕХОД НА СТРАНИЦУ</text><text x="982" y="1918" font-family="DejaVu Sans" font-size="24" fill="#86ABFF" font-weight="700" text-anchor="start">/about#space</text><path d="M102 1953 L102 1973" fill="none" stroke="#30E5AD" stroke-width="2" marker-end="url(#arrow-mint)"/><rect x="80" y="1977" width="780" height="122" rx="10" fill="#0E1512" opacity="1" stroke="#304039"/><rect x="80" y="1977" width="5" height="122" rx="2" fill="#30E5AD" opacity="1"/><text x="109" y="2021" font-family="DejaVu Sans" font-size="29" fill="#30E5AD" font-weight="700" text-anchor="start">04</text><text x="170" y="2021" font-family="DejaVu Sans" font-size="30" fill="#EDF2EE" font-weight="700" text-anchor="start">Ближайшая ночь</text><text x="170" y="2053" font-family="DejaVu Sans" font-size="21" fill="#30E5AD" font-weight="400" text-anchor="start">#next-night</text><text x="109" y="2082" font-family="DejaVu Sans" font-size="22" fill="#A8B8AE" font-weight="400" text-anchor="start">Проверить событие, дату и статус.</text><path d="M865 2038 L925 2038" fill="none" stroke="#86ABFF" stroke-width="2.2" marker-end="url(#arrow-blue)"/><rect x="952" y="1977" width="768" height="122" rx="10" fill="#0B120F" opacity="1" stroke="#304039"/><text x="982" y="2025" font-family="DejaVu Sans" font-size="20" fill="#A8B8AE" font-weight="400" text-anchor="start">ПЕРЕХОД НА СТРАНИЦУ</text><text x="982" y="2065" font-family="DejaVu Sans" font-size="24" fill="#86ABFF" font-weight="700" text-anchor="start">/events → /events/:slug</text><path d="M102 2100 L102 2120" fill="none" stroke="#30E5AD" stroke-width="2" marker-end="url(#arrow-mint)"/><rect x="80" y="2124" width="780" height="122" rx="10" fill="#0E1512" opacity="1" stroke="#304039"/><rect x="80" y="2124" width="5" height="122" rx="2" fill="#30E5AD" opacity="1"/><text x="109" y="2168" font-family="DejaVu Sans" font-size="29" fill="#30E5AD" font-weight="700" text-anchor="start">05</text><text x="170" y="2168" font-family="DejaVu Sans" font-size="30" fill="#EDF2EE" font-weight="700" text-anchor="start">Принадлежность</text><text x="170" y="2200" font-family="DejaVu Sans" font-size="21" fill="#30E5AD" font-weight="400" text-anchor="start">#belonging</text><text x="109" y="2229" font-family="DejaVu Sans" font-size="22" fill="#A8B8AE" font-weight="400" text-anchor="start">Понять сообщество и правила допуска.</text><path d="M865 2185 L925 2185" fill="none" stroke="#86ABFF" stroke-width="2.2" marker-end="url(#arrow-blue)"/><rect x="952" y="2124" width="768" height="122" rx="10" fill="#0B120F" opacity="1" stroke="#304039"/><text x="982" y="2172" font-family="DejaVu Sans" font-size="20" fill="#A8B8AE" font-weight="400" text-anchor="start">ПЕРЕХОД НА СТРАНИЦУ</text><text x="982" y="2212" font-family="DejaVu Sans" font-size="24" fill="#86ABFF" font-weight="700" text-anchor="start">/about#community ↔ /faq#access</text><path d="M102 2247 L102 2267" fill="none" stroke="#30E5AD" stroke-width="2" marker-end="url(#arrow-mint)"/><rect x="80" y="2271" width="780" height="122" rx="10" fill="#0E1512" opacity="1" stroke="#304039"/><rect x="80" y="2271" width="5" height="122" rx="2" fill="#30E5AD" opacity="1"/><text x="109" y="2315" font-family="DejaVu Sans" font-size="29" fill="#30E5AD" font-weight="700" text-anchor="start">06</text><text x="170" y="2315" font-family="DejaVu Sans" font-size="30" fill="#EDF2EE" font-weight="700" text-anchor="start">Приглашение</text><text x="170" y="2347" font-family="DejaVu Sans" font-size="21" fill="#30E5AD" font-weight="400" text-anchor="start">#invitation</text><text x="109" y="2376" font-family="DejaVu Sans" font-size="22" fill="#A8B8AE" font-weight="400" text-anchor="start">Открыть форму и объяснение шага.</text><path d="M865 2332 L925 2332" fill="none" stroke="#E55330" stroke-width="2.2" marker-end="url(#arrow-orange)"/><rect x="952" y="2271" width="768" height="122" rx="10" fill="#0B120F" opacity="1" stroke="#304039"/><text x="982" y="2319" font-family="DejaVu Sans" font-size="20" fill="#A8B8AE" font-weight="400" text-anchor="start">ПЕРЕХОД НА СТРАНИЦУ</text><text x="982" y="2359" font-family="DejaVu Sans" font-size="24" fill="#E55330" font-weight="700" text-anchor="start">/apply ↔ /rules · /faq</text><rect x="80" y="2445" width="1640" height="132" rx="10" fill="#101911" opacity="1" stroke="#304039"/><text x="110" y="2486" font-family="DejaVu Sans" font-size="27" fill="#EDF2EE" font-weight="700" text-anchor="start">Форма и полезные связи</text><text x="110" y="2525" font-family="DejaVu Sans" font-size="25" fill="#A8B8AE" font-weight="400" text-anchor="start">Событие → /apply?event=slug. Правила / FAQ открываются с понятным возвратом.</text><text x="110" y="2558" font-family="DejaVu Sans" font-size="25" fill="#A8B8AE" font-weight="400" text-anchor="start">Согласия → /privacy и /consent. Контакты и остальные документы — в подвале.</text><rect x="80" y="2605" width="1640" height="180" rx="12" fill="#0E1512" opacity="1" stroke="#304039"/><text x="106" y="2645" font-family="DejaVu Sans" font-size="23" fill="#A8B8AE" font-weight="700" text-anchor="start">ПОСЛЕ ВИЗУАЛЬНОГО ЭТАПА · 05–08</text><rect x="106.0" y="2671" width="241.33333333333334" height="79" rx="6" fill="#0B100D" opacity="1" stroke="#304039"/><text x="226.66666666666669" y="2704" font-family="DejaVu Sans" font-size="23" fill="#EDF2EE" font-weight="700" text-anchor="middle">Заявка</text><text x="226.66666666666669" y="2735" font-family="DejaVu Sans" font-size="21" fill="#A8B8AE" font-weight="400" text-anchor="middle">/apply</text><path d="M351.33333333333337 2710 L370.33333333333337 2710" fill="none" stroke="#A8B8AE" stroke-width="1.6" stroke-dasharray="4 5" marker-end="url(#arrow-gray)"/><rect x="375.33333333333337" y="2671" width="241.33333333333334" height="79" rx="6" fill="#0B100D" opacity="1" stroke="#304039"/><text x="496.00000000000006" y="2704" font-family="DejaVu Sans" font-size="23" fill="#EDF2EE" font-weight="700" text-anchor="middle">Решение</text><text x="496.00000000000006" y="2735" font-family="DejaVu Sans" font-size="21" fill="#A8B8AE" font-weight="400" text-anchor="middle">модерация</text><path d="M620.6666666666667 2710 L639.6666666666667 2710" fill="none" stroke="#A8B8AE" stroke-width="1.6" stroke-dasharray="4 5" marker-end="url(#arrow-gray)"/><rect x="644.6666666666667" y="2671" width="241.33333333333334" height="79" rx="6" fill="#0B100D" opacity="1" stroke="#304039"/><text x="765.3333333333334" y="2704" font-family="DejaVu Sans" font-size="23" fill="#EDF2EE" font-weight="700" text-anchor="middle">Кабинет</text><text x="765.3333333333334" y="2735" font-family="DejaVu Sans" font-size="21" fill="#A8B8AE" font-weight="400" text-anchor="middle">/member</text><path d="M890.0000000000001 2710 L909.0000000000001 2710" fill="none" stroke="#A8B8AE" stroke-width="1.6" stroke-dasharray="4 5" marker-end="url(#arrow-gray)"/><rect x="914.0000000000001" y="2671" width="241.33333333333334" height="79" rx="6" fill="#0B100D" opacity="1" stroke="#304039"/><text x="1034.6666666666667" y="2704" font-family="DejaVu Sans" font-size="23" fill="#EDF2EE" font-weight="700" text-anchor="middle">Заказ</text><text x="1034.6666666666667" y="2735" font-family="DejaVu Sans" font-size="21" fill="#A8B8AE" font-weight="400" text-anchor="middle">участие</text><path d="M1159.3333333333335 2710 L1178.3333333333335 2710" fill="none" stroke="#A8B8AE" stroke-width="1.6" stroke-dasharray="4 5" marker-end="url(#arrow-gray)"/><rect x="1183.3333333333335" y="2671" width="241.33333333333334" height="79" rx="6" fill="#0B100D" opacity="1" stroke="#304039"/><text x="1304.0000000000002" y="2704" font-family="DejaVu Sans" font-size="23" fill="#EDF2EE" font-weight="700" text-anchor="middle">QR</text><text x="1304.0000000000002" y="2735" font-family="DejaVu Sans" font-size="21" fill="#A8B8AE" font-weight="400" text-anchor="middle">пропуск</text><path d="M1428.6666666666667 2710 L1447.6666666666667 2710" fill="none" stroke="#A8B8AE" stroke-width="1.6" stroke-dasharray="4 5" marker-end="url(#arrow-gray)"/><rect x="1452.666666666667" y="2671" width="241.33333333333334" height="79" rx="6" fill="#0B100D" opacity="1" stroke="#304039"/><text x="1573.3333333333337" y="2704" font-family="DejaVu Sans" font-size="23" fill="#EDF2EE" font-weight="700" text-anchor="middle">Вход</text><text x="1573.3333333333337" y="2735" font-family="DejaVu Sans" font-size="21" fill="#A8B8AE" font-weight="400" text-anchor="middle">/scan</text><text x="80" y="2846" font-family="DejaVu Sans" font-size="25" fill="#EDF2EE" font-weight="400" text-anchor="start">Прототип этапа 03: без отправки заявок и без обещания реального допуска.</text><text x="80" y="2902" font-family="DejaVu Sans" font-size="21" fill="#30E5AD" font-weight="700" text-anchor="start">ПЛАН ДИЗАЙНА / ЭТАПЫ 02–03</text><text x="1720" y="2902" font-family="DejaVu Sans" font-size="21" fill="#A8B8AE" font-weight="400" text-anchor="end">02 / MOBILE</text></svg>